<?xml version="1.0" standalone="no"?>
<!DOCTYPE svg PUBLIC "-//W3C//DTD SVG 20010904//EN"
 "http://www.w3.org/TR/2001/REC-SVG-20010904/DTD/svg10.dtd">
<svg version="1.0" xmlns="http://www.w3.org/2000/svg"
 width="1200.000000pt" height="1200.000000pt" viewBox="0 0 1200.000000 1200.000000"
 preserveAspectRatio="xMidYMid meet">
<metadata>
Created by potrace 1.14, written by Peter Selinger 2001-2017
</metadata>
<g transform="translate(0.000000,1200.000000) scale(0.100000,-0.100000)"
fill="#000000" stroke="none">
<path d="M5981 11759 c-13 -41 -27 -86 -33 -101 -6 -15 -10 -29 -10 -32 0 -3
-6 -22 -13 -43 l-13 -38 -109 -2 c-59 -1 -128 -2 -152 -2 l-45 -1 45 -32 c187
-135 196 -143 192 -168 -1 -14 -7 -34 -12 -45 -8 -18 -40 -114 -46 -140 -1 -5
-4 -17 -8 -25 -13 -36 -16 -50 -11 -50 4 0 45 28 93 63 47 35 100 73 117 84
l31 22 117 -85 c65 -47 120 -83 123 -81 2 3 -1 15 -7 27 -7 13 -13 32 -15 44
-2 11 -17 61 -34 110 -37 106 -44 92 98 191 55 39 100 75 101 80 0 6 -53 9
-144 8 l-143 -3 -16 43 c-18 49 -60 178 -63 192 -1 6 -6 21 -11 34 -9 21 -12
16 -32 -50z"/>
<path d="M6786 11474 c-31 -95 -17 -87 -151 -85 l-60 1 35 -31 c19 -17 52 -42
73 -55 39 -25 45 -42 25 -62 -7 -7 -9 -12 -5 -12 3 0 -5 -30 -19 -66 -15 -40
-19 -63 -12 -58 7 4 41 27 76 51 44 31 68 42 82 38 11 -4 20 -11 20 -16 0 -5
6 -9 13 -9 6 0 28 -14 47 -30 55 -47 61 -38 30 51 -21 59 -25 83 -17 90 7 5
41 32 76 59 l64 51 -93 -3 -92 -2 -19 50 c-11 27 -19 50 -19 51 -3 24 -14 64
-19 68 -4 2 -20 -34 -35 -81z"/>
<path d="M5177 11520 c-4 -16 -6 -31 -5 -33 1 -1 -4 -12 -11 -25 -7 -13 -14
-33 -16 -44 -3 -11 -6 -23 -8 -25 -3 -2 -46 -4 -97 -4 -51 0 -90 -2 -88 -5 3
-2 37 -28 75 -57 l69 -52 -27 -85 c-15 -47 -25 -87 -23 -89 2 -2 31 18 66 44
35 26 69 50 75 52 7 3 44 -18 83 -47 71 -51 71 -51 66 -23 -2 15 -14 54 -26
86 -12 32 -20 60 -17 63 2 2 37 29 76 59 l73 54 -92 -2 c-97 -2 -104 1 -113
50 -2 10 -9 29 -14 43 -6 14 -12 34 -14 44 -6 31 -26 29 -32 -4z"/>
<path d="M4584 11298 l-29 -83 -93 -3 -93 -3 75 -55 c84 -61 79 -42 38 -171
l-20 -62 78 54 77 54 44 -32 c24 -17 55 -42 68 -54 26 -23 50 -21 31 2 -7 8
-9 19 -6 24 4 5 2 12 -4 16 -6 4 -8 11 -5 16 4 5 2 9 -3 9 -5 0 -12 12 -14 28
-3 15 -8 34 -12 43 -6 13 11 30 71 73 l77 56 -64 1 c-36 1 -79 0 -97 -1 -28
-1 -33 2 -39 27 -9 41 -40 132 -46 139 -3 2 -18 -33 -34 -78z"/>
<path d="M7394 11372 c-6 -4 -16 -29 -24 -57 -7 -27 -17 -54 -21 -59 -5 -6 -9
-18 -9 -29 0 -16 -8 -18 -62 -17 -144 3 -140 7 -55 -55 l76 -55 -15 -49 c-8
-27 -21 -68 -29 -90 l-14 -42 78 55 78 55 64 -47 c35 -26 66 -50 67 -55 2 -4
8 -4 13 -1 6 3 5 11 -2 20 -6 8 -9 14 -5 14 4 0 -1 14 -9 31 -9 17 -14 33 -12
36 3 2 -1 20 -9 38 l-14 34 77 55 77 56 -54 1 c-30 0 -73 0 -96 -1 l-40 -1
-25 78 c-13 43 -23 81 -21 85 3 10 0 10 -14 0z"/>
<path d="M10986 11218 c3 -5 10 -6 15 -3 13 9 11 12 -6 12 -8 0 -12 -4 -9 -9z"/>
<path d="M5036 11073 c-6 -14 -5 -15 5 -6 7 7 10 15 7 18 -3 3 -9 -2 -12 -12z"/>
<path d="M3636 10974 c-141 -71 -236 -147 -322 -256 -13 -16 -54 -124 -50
-129 2 -2 6 -22 9 -45 6 -39 5 -41 -31 -58 -20 -10 -83 -45 -139 -77 -57 -32
-106 -59 -109 -59 -4 0 4 10 17 23 47 43 118 143 145 202 33 71 36 138 10 177
l-18 28 -38 -21 c-42 -24 -135 -92 -177 -130 -161 -147 -237 -313 -188 -409
14 -28 14 -29 -18 -51 -17 -13 -75 -57 -127 -98 -52 -41 -100 -78 -107 -83 -7
-6 8 21 33 59 115 173 139 309 69 379 -13 14 -18 13 -43 -4 -56 -40 -189 -189
-236 -265 -57 -92 -86 -177 -86 -257 0 -47 4 -62 24 -81 l24 -24 -128 -133
c-116 -120 -126 -128 -105 -85 21 41 44 96 50 113 55 177 51 256 -13 305 l-26
19 -44 -50 c-48 -53 -137 -184 -170 -249 -29 -57 -61 -172 -66 -229 -4 -65 11
-120 41 -150 l25 -25 -54 -73 c-30 -40 -76 -104 -103 -143 -66 -95 -68 -97
-45 -34 10 31 21 67 24 80 2 13 9 44 15 69 24 103 5 230 -40 266 -41 33 -53
27 -102 -53 -66 -111 -123 -243 -143 -330 -3 -15 -8 -65 -11 -111 -6 -98 11
-157 58 -197 l30 -25 -39 -67 c-22 -38 -63 -114 -91 -170 -28 -57 -54 -103
-57 -103 -3 0 -2 5 1 10 16 25 34 183 31 270 -2 74 -8 104 -25 138 -19 37 -70
82 -93 82 -17 0 -90 -173 -122 -290 -56 -203 -32 -409 55 -458 16 -9 29 -22
29 -29 0 -6 -20 -63 -45 -128 -25 -64 -55 -145 -66 -181 -12 -36 -22 -64 -23
-62 -1 2 1 41 4 88 14 226 -40 387 -137 406 -30 6 -31 4 -46 -42 -15 -46 -37
-130 -53 -199 -3 -16 -8 -94 -10 -173 -3 -132 -1 -149 22 -215 18 -51 37 -83
65 -110 22 -21 43 -35 48 -32 22 13 19 -22 -13 -157 -19 -78 -37 -157 -40
-175 -2 -17 -9 -39 -14 -50 -9 -15 -11 -11 -10 22 1 137 -46 316 -100 381 -35
41 -89 60 -118 41 -28 -17 -51 -329 -33 -455 12 -84 54 -206 85 -247 29 -39
64 -64 96 -69 29 -4 29 7 3 -251 -4 -33 -8 -84 -9 -113 -4 -69 -12 -74 -20
-12 -10 72 -52 213 -83 277 -44 90 -118 147 -173 133 l-25 -6 0 -144 c0 -200
11 -275 56 -398 53 -146 115 -217 197 -227 12 -1 25 -4 27 -7 3 -3 8 -71 10
-152 3 -81 7 -180 9 -219 2 -40 2 -67 0 -61 -3 6 -20 54 -39 108 -75 214 -176
336 -272 329 -48 -3 -46 2 -39 -85 29 -366 186 -675 346 -682 38 -2 47 -12 48
-56 1 -23 4 -45 7 -49 2 -5 7 -28 10 -52 5 -42 13 -91 22 -134 2 -11 8 -45 14
-75 6 -30 12 -64 15 -75 3 -11 -15 21 -39 71 -109 223 -213 335 -314 337 -65
1 -69 -9 -49 -104 52 -241 161 -460 286 -572 47 -42 131 -83 144 -69 3 3 16 6
29 8 22 2 26 -6 56 -112 18 -62 51 -162 72 -221 41 -112 49 -148 23 -99 -30
58 -128 187 -191 250 -66 67 -136 109 -187 111 -35 2 -86 -20 -86 -37 0 -17
69 -187 103 -253 115 -223 280 -397 391 -412 45 -7 48 -7 83 1 32 7 33 7 62
-56 41 -91 113 -236 156 -315 l37 -68 -33 39 c-65 75 -175 178 -235 222 -103
74 -171 93 -235 67 -25 -10 -39 -22 -39 -33 0 -35 143 -265 215 -347 183 -208
363 -303 469 -248 16 9 32 12 35 7 3 -4 24 -35 46 -67 55 -84 227 -319 240
-327 7 -5 6 -8 -1 -8 -6 0 -17 7 -24 15 -24 28 -194 151 -260 187 -74 41 -153
67 -190 62 -14 -1 -33 -3 -42 -3 -10 -1 -32 -14 -49 -29 l-31 -28 67 -84 c169
-213 379 -376 546 -424 50 -15 191 -19 184 -6 -1 3 6 13 15 23 17 18 21 16 89
-53 39 -39 71 -76 71 -82 0 -6 3 -9 6 -5 3 3 23 -11 43 -31 20 -20 73 -70 116
-111 52 -48 68 -67 45 -53 -67 39 -277 141 -305 147 -5 2 -29 8 -52 14 -23 6
-58 12 -77 13 -23 1 -33 5 -29 12 4 6 -1 5 -10 -3 -9 -7 -17 -11 -17 -8 0 3
-13 2 -29 -3 -19 -5 -33 -4 -41 3 -10 9 -11 9 -5 -1 8 -15 -24 -44 -39 -35 -5
4 -6 1 -2 -6 4 -6 3 -18 -3 -25 -9 -10 1 -24 44 -62 30 -27 76 -68 102 -91 27
-24 54 -43 61 -43 6 0 12 -4 12 -8 0 -13 197 -127 270 -158 101 -41 149 -54
231 -60 89 -8 133 4 175 45 l30 29 121 -81 c129 -87 191 -126 263 -165 25 -14
54 -31 65 -40 l20 -14 -20 7 c-30 10 -187 56 -208 61 -10 2 -27 6 -37 9 -106
34 -277 38 -341 10 -33 -15 -79 -67 -79 -89 0 -12 121 -85 224 -135 99 -49
278 -114 343 -126 146 -25 245 -25 323 0 51 17 110 65 110 90 0 17 33 13 80
-10 49 -25 227 -89 350 -126 l125 -39 -105 6 c-235 14 -380 5 -464 -27 -73
-28 -100 -53 -116 -108 -7 -25 -5 -33 9 -40 25 -14 239 -78 281 -85 19 -3 60
-11 90 -18 89 -20 361 -16 445 6 87 23 138 49 176 87 32 32 22 32 204 14 22
-2 69 -6 105 -10 36 -3 76 -8 90 -10 14 -2 50 -7 80 -10 219 -24 468 -74 660
-132 118 -36 300 -104 300 -113 0 -3 -17 -16 -37 -30 -81 -55 -171 -124 -216
-166 -26 -24 -51 -44 -56 -44 -5 0 -11 -4 -13 -10 -1 -5 -44 -51 -93 -102
-120 -124 -132 -138 -114 -138 8 0 43 28 79 61 148 139 322 267 463 344 l83
44 84 -47 c182 -103 300 -192 474 -354 58 -55 89 -64 54 -17 -51 68 -311 308
-411 379 -58 41 -106 77 -106 80 -1 7 146 64 257 100 96 32 307 85 375 95 23
4 44 8 47 10 3 1 32 6 65 10 32 3 62 8 65 10 5 2 75 12 157 20 17 2 49 6 70 9
21 3 113 13 205 21 l167 15 31 -30 c49 -48 139 -86 235 -98 109 -15 326 -6
440 17 135 28 321 87 327 104 8 23 -7 58 -39 90 -68 70 -214 90 -528 75 -66
-4 -111 -4 -100 -2 58 14 314 102 410 140 122 49 125 50 125 30 0 -26 59 -74
112 -92 50 -16 173 -22 248 -11 175 26 443 133 598 239 47 32 46 31 30 61 -30
57 -82 80 -183 80 -74 0 -171 -10 -186 -18 -3 -2 -19 -6 -35 -9 -27 -5 -198
-54 -249 -72 -11 -3 40 30 113 75 144 87 313 200 324 215 3 5 20 -5 38 -22 40
-40 98 -56 180 -48 93 8 111 12 211 52 143 58 315 171 459 302 53 48 54 51 41
76 -35 65 -148 78 -286 31 -76 -25 -230 -96 -305 -141 -41 -24 -38 -19 30 42
41 38 128 122 193 187 l119 118 23 -21 c33 -31 125 -38 196 -15 130 43 267
133 392 258 98 98 133 138 181 205 l36 50 -31 26 c-17 14 -39 27 -50 27 -10 1
-29 2 -41 3 -80 6 -290 -107 -427 -230 -46 -41 -68 -53 -41 -21 33 38 157 206
215 292 37 55 69 102 71 104 1 1 13 -4 26 -13 39 -27 114 -21 193 18 98 46
181 116 290 241 34 39 143 204 183 277 l32 57 -21 20 c-46 43 -148 28 -241
-36 -72 -50 -178 -150 -268 -253 -20 -22 -19 -20 3 20 33 60 148 291 177 357
23 51 24 52 49 39 110 -54 299 95 445 349 48 83 136 288 136 316 0 19 -55 37
-99 33 -51 -6 -102 -38 -171 -106 -61 -61 -159 -188 -195 -254 -22 -38 -16
-17 43 156 27 80 57 175 67 211 l17 67 38 -5 c56 -8 103 12 166 70 123 113
228 325 281 569 19 90 15 100 -44 101 -62 0 -65 -1 -134 -62 -59 -52 -113
-132 -178 -260 -28 -57 -51 -99 -50 -94 2 42 47 222 54 216 4 -5 5 -2 1 4 -4
7 -2 50 4 95 18 138 16 134 57 135 50 1 80 19 138 79 75 77 146 232 180 395
21 98 23 115 30 201 6 68 4 78 -12 85 -22 11 -53 11 -71 0 -6 -5 -12 -5 -12
-2 0 4 -18 -8 -40 -25 -71 -56 -133 -167 -191 -340 l-29 -85 5 80 c4 44 8 145
10 223 2 79 5 145 7 147 2 2 19 7 37 10 104 18 192 166 237 399 3 15 16 202
16 226 0 128 -2 141 -24 149 -55 20 -137 -40 -182 -134 -31 -63 -64 -173 -81
-267 -7 -40 -14 -62 -15 -48 -6 86 -11 136 -26 275 -11 100 -10 140 4 141 6 1
19 2 27 3 23 2 93 76 110 118 54 129 74 309 54 488 -14 128 -28 175 -50 175
-27 0 -79 -28 -101 -54 -54 -65 -100 -242 -101 -388 -1 -52 -13 -28 -27 50 -7
42 -15 82 -16 87 -2 6 -15 57 -29 114 -26 106 -24 120 12 121 22 0 81 81 99
138 15 45 19 87 19 197 0 164 -4 191 -56 368 -20 67 -21 68 -51 63 -104 -16
-156 -192 -134 -453 2 -24 2 -43 1 -43 -1 0 -15 37 -30 83 -16 45 -47 130 -70
189 l-43 107 34 20 c105 62 119 294 32 546 -32 94 -79 193 -93 199 -22 8 -74
-32 -97 -76 -19 -37 -22 -59 -23 -148 0 -111 10 -205 26 -248 19 -51 -9 -7
-65 103 -31 61 -70 133 -86 162 l-29 52 33 33 c94 94 70 311 -61 561 -26 48
-59 101 -73 119 -27 32 -27 32 -54 14 -39 -25 -66 -90 -66 -159 0 -67 24 -190
51 -261 10 -27 18 -51 16 -52 -1 -1 -33 43 -72 98 -38 55 -75 105 -80 111 -6
7 -24 29 -39 50 l-29 37 25 25 c66 66 56 208 -29 381 -49 101 -188 294 -209
294 -17 -1 -64 -49 -64 -65 0 -9 -3 -14 -7 -12 -5 3 -7 -26 -7 -64 1 -47 -2
-67 -10 -63 -6 3 -4 0 4 -8 8 -7 28 -51 44 -98 16 -47 40 -105 53 -130 24 -43
22 -42 -46 29 -39 41 -71 78 -71 82 0 4 -4 9 -9 11 -5 2 -30 23 -56 47 l-47
44 20 36 c30 54 32 99 8 183 -37 127 -167 306 -298 409 -42 34 -52 31 -80 -26
-35 -72 4 -202 105 -352 37 -56 27 -56 -33 -2 -19 17 -74 60 -122 96 l-88 65
16 30 c26 50 13 145 -30 213 -71 113 -147 194 -255 269 -115 80 -116 81 -137
48 -28 -42 -22 -117 15 -190 28 -56 115 -171 151 -199 34 -27 -9 -11 -60 23
-30 20 -55 35 -55 33 0 -1 -20 9 -45 23 -25 15 -62 34 -82 44 -39 18 -42 25
-29 58 13 33 -9 117 -44 170 -42 65 -105 128 -177 177 -61 42 -228 129 -246
129 -16 0 -33 -64 -27 -101 12 -75 72 -156 190 -258 41 -35 44 -40 18 -27 -18
9 -40 16 -49 16 -9 0 -31 11 -48 24 -71 53 -210 108 -320 124 -61 10 -182 9
-192 -1 -10 -9 68 -56 155 -92 106 -45 238 -83 315 -91 34 -4 63 -9 66 -13 3
-3 20 -13 39 -22 l34 -15 -74 2 c-172 4 -283 -44 -309 -136 -5 -19 -8 -36 -5
-38 21 -22 299 -61 393 -55 94 6 161 30 206 74 l39 40 111 -62 c61 -34 124
-69 139 -77 39 -20 27 -26 -24 -12 -64 18 -187 20 -242 6 -53 -15 -101 -54
-116 -97 -9 -27 -8 -29 37 -50 45 -20 206 -72 261 -85 14 -3 70 -8 124 -10
109 -4 151 7 198 52 24 23 28 24 42 10 9 -9 20 -16 25 -16 6 0 12 -3 14 -8 2
-4 51 -45 111 -91 59 -46 107 -85 107 -86 0 -2 -31 10 -69 26 -112 47 -246 57
-311 24 -28 -15 -70 -64 -70 -83 0 -27 264 -157 378 -187 52 -13 128 -20 183
-16 9 1 33 13 54 27 l38 26 106 -109 c145 -150 145 -148 35 -93 -53 28 -106
50 -116 50 -13 0 -17 4 -12 13 6 9 4 9 -8 -1 -9 -7 -19 -9 -22 -4 -9 15 -125
-6 -156 -29 -60 -45 -51 -60 98 -166 111 -79 214 -134 289 -156 63 -19 151
-15 186 7 27 18 16 28 119 -112 15 -20 31 -41 36 -47 25 -33 82 -116 82 -120
0 -3 -27 17 -60 43 -56 45 -153 100 -189 107 -9 2 -16 4 -16 5 0 1 -17 3 -38
6 -51 6 -108 -11 -136 -40 l-22 -24 33 -38 c87 -99 277 -264 304 -264 7 0 14
-4 16 -8 2 -4 27 -18 56 -31 67 -28 140 -34 177 -15 16 8 29 13 30 12 13 -21
65 -117 115 -213 l62 -120 -58 56 c-95 90 -106 99 -170 130 -42 21 -77 31
-108 31 -52 0 -112 -30 -110 -54 2 -26 123 -184 209 -273 76 -78 170 -149 218
-163 12 -3 49 -6 82 -5 l61 0 18 -46 c10 -25 25 -59 32 -76 17 -41 71 -194 78
-225 6 -22 5 -22 -10 5 -75 135 -234 260 -325 257 -60 -3 -108 -33 -90 -57 5
-5 25 -44 46 -85 104 -203 260 -383 358 -414 30 -9 67 -14 84 -11 26 4 31 1
36 -18 2 -12 21 -92 41 -177 50 -212 50 -214 12 -138 -65 129 -156 228 -241
260 -42 16 -101 14 -123 -4 -12 -10 -13 -58 -1 -68 3 -3 20 -43 38 -90 117
-298 249 -460 375 -460 l33 0 12 -112 c21 -193 31 -311 26 -306 -2 2 -17 40
-34 86 -74 204 -200 325 -305 295 -37 -11 -37 -14 -7 -142 77 -325 200 -541
312 -546 16 -1 32 -5 36 -9 7 -6 5 -206 -2 -301 -2 -22 -4 -62 -4 -89 -1 -56
-7 -58 -14 -6 -14 106 -75 267 -116 311 -12 13 -21 25 -21 28 0 9 -70 55 -89
59 -27 5 -70 4 -81 -3 -16 -10 0 -182 31 -343 44 -221 119 -364 207 -393 20
-6 40 -13 43 -15 4 -2 3 -23 -1 -46 -10 -53 -22 -126 -25 -153 -5 -55 -18
-115 -24 -115 -3 0 -6 -15 -7 -32 -1 -49 -8 -88 -14 -88 -3 0 -6 26 -7 58 -1
62 -10 129 -19 143 -3 5 1 9 8 9 10 0 10 2 -1 9 -7 5 -10 14 -7 20 4 6 3 11
-2 11 -5 0 -14 19 -21 43 -29 97 -88 165 -163 185 -60 16 -63 7 -63 -207 0
-112 -4 -189 -10 -193 -6 -5 -6 -8 1 -8 7 0 11 -16 11 -38 0 -21 2 -42 5 -48
3 -5 8 -25 12 -44 3 -19 8 -45 11 -58 8 -41 55 -131 85 -162 16 -16 40 -32 55
-36 23 -6 25 -10 19 -38 -10 -47 -112 -357 -129 -391 -9 -16 -13 -21 -9 -10
10 35 13 218 3 283 -17 119 -72 205 -146 230 -41 13 -58 0 -68 -53 -5 -22 -9
-44 -11 -50 -3 -13 -14 -84 -19 -127 -3 -18 -7 -55 -11 -83 -19 -145 -6 -347
26 -420 17 -37 70 -95 87 -95 7 0 13 -6 13 -12 0 -19 -200 -418 -209 -418 -5
0 -3 18 5 39 7 22 16 55 19 73 3 18 8 41 11 51 12 40 12 170 -1 232 -16 74
-49 126 -95 150 -55 29 -61 22 -109 -122 -80 -244 -105 -367 -104 -505 0 -90
19 -151 59 -192 l33 -34 -49 -74 c-76 -112 -80 -116 -157 -220 -81 -108 -104
-130 -68 -66 41 74 86 225 92 308 9 128 -26 211 -99 239 -27 10 -28 8 -76 -77
-93 -166 -154 -302 -192 -427 -47 -151 -43 -273 10 -330 18 -20 18 -21 -19
-63 -20 -23 -43 -42 -51 -42 -7 0 -11 -3 -7 -6 5 -6 -60 -73 -175 -179 -118
-109 -131 -116 -63 -30 45 56 98 157 128 242 36 100 34 204 -6 256 -35 46 -64
56 -83 28 -8 -11 -20 -26 -27 -33 -36 -38 -136 -170 -193 -255 -53 -77 -173
-298 -163 -298 2 0 -1 -11 -5 -25 -14 -44 -9 -119 9 -160 10 -22 16 -42 14
-44 -16 -15 -241 -162 -314 -206 -49 -29 -101 -60 -115 -69 -14 -8 14 24 61
71 135 135 207 257 214 361 4 59 -8 97 -40 127 -25 23 -44 19 -81 -17 -9 -10
-29 -27 -44 -38 -51 -38 -174 -151 -251 -230 -178 -183 -242 -300 -218 -404 8
-37 3 -50 -22 -55 -8 -2 -36 -13 -62 -24 -27 -12 -54 -22 -61 -22 -7 0 -16 -4
-21 -9 -9 -7 -239 -86 -315 -107 -36 -10 -22 1 69 54 243 141 367 339 282 451
l-18 23 -121 -61 c-135 -68 -306 -167 -395 -230 -32 -23 -63 -38 -69 -35 -6 4
-8 2 -4 -4 3 -6 -4 -19 -16 -29 -47 -37 -108 -117 -120 -154 -9 -32 -16 -40
-42 -44 -17 -2 -87 -14 -155 -26 -69 -12 -138 -22 -155 -23 -17 0 -34 -5 -37
-9 -3 -4 -29 -9 -56 -10 -28 -1 -49 -5 -47 -8 2 -4 -15 -10 -39 -14 -23 -5
-44 -9 -47 -9 -5 -2 -56 -12 -95 -20 -44 -9 -335 -99 -425 -133 -52 -19 -159
-66 -237 -104 -77 -38 -144 -69 -148 -69 -4 0 -71 31 -148 69 -192 94 -471
193 -637 227 -8 2 -72 17 -142 34 -70 16 -138 30 -152 30 -15 0 -26 3 -26 8 0
4 -15 8 -33 9 -34 1 -329 51 -332 55 0 2 -12 27 -25 57 -52 114 -241 252 -582
426 -70 36 -130 65 -132 65 -13 0 -40 -61 -42 -95 -3 -90 46 -169 179 -290 36
-33 129 -92 190 -122 52 -26 62 -37 20 -23 -343 108 -499 170 -495 197 8 52 3
122 -10 153 -8 19 -16 40 -18 45 -2 6 -8 15 -12 20 -5 6 -27 35 -49 65 -78
108 -289 310 -442 425 l-38 28 -24 -23 c-43 -41 -53 -109 -27 -198 30 -99 144
-252 256 -341 53 -42 39 -39 -40 9 -36 22 -68 40 -71 40 -3 0 -77 48 -165 106
-144 96 -158 108 -145 122 20 23 29 56 28 105 -1 42 -2 48 -16 102 -19 72
-172 337 -229 399 -6 6 -24 29 -41 51 -16 22 -33 45 -37 50 -4 6 -27 32 -51
59 -44 50 -44 50 -71 33 -14 -10 -35 -36 -47 -59 -18 -36 -21 -53 -16 -118 7
-104 51 -207 145 -345 54 -78 49 -80 -23 -10 -12 11 -49 46 -83 78 -36 33 -60
63 -56 69 4 7 3 8 -4 4 -11 -7 -102 77 -102 95 0 6 -4 8 -8 5 -5 -3 -18 7 -29
22 -18 25 -19 29 -4 42 8 8 19 14 24 12 5 -1 6 1 3 6 -3 5 1 28 7 53 27 94 9
193 -71 394 -36 91 -114 250 -166 337 -26 44 -29 46 -54 37 -74 -28 -97 -77
-96 -204 0 -109 19 -188 74 -308 17 -37 30 -69 30 -73 0 -8 -159 205 -234 314
l-57 84 24 21 c29 26 57 78 65 121 8 44 7 153 -2 206 -4 25 -9 56 -11 70 -12
81 -116 423 -135 444 -13 13 -74 -12 -102 -42 -71 -77 -84 -278 -28 -462 5
-19 10 -42 10 -50 -1 -18 -210 399 -210 418 0 6 6 12 14 12 8 0 30 18 49 41
83 97 95 328 35 663 -18 99 -25 119 -42 126 -38 14 -112 -35 -143 -94 -42 -80
-63 -257 -44 -374 4 -29 5 -52 2 -52 -6 0 -125 359 -136 410 -5 21 0 27 32 41
22 9 50 32 66 56 31 45 72 157 82 225 9 57 15 446 8 481 -5 25 -9 27 -46 25
-121 -7 -210 -179 -219 -420 -2 -72 -7 -79 -14 -26 -3 18 -9 49 -14 68 -5 19
-14 67 -20 105 -6 39 -13 81 -15 95 -23 138 -24 137 15 145 129 28 224 277
255 672 6 68 1 75 -49 75 -61 0 -125 -48 -173 -129 -25 -44 -71 -165 -80 -212
-2 -14 -8 -44 -13 -66 l-8 -40 -2 45 c-1 25 -3 59 -4 75 -2 17 -5 98 -7 180
-3 146 -3 150 17 147 54 -7 141 63 197 159 50 85 127 312 152 445 2 16 7 39 9
51 3 15 -1 26 -12 32 -23 11 -80 8 -117 -8 -72 -30 -162 -153 -207 -283 -12
-38 -26 -68 -30 -68 -4 0 -6 6 -3 13 2 6 6 50 9 97 7 91 15 182 21 215 2 11 4
32 4 47 1 22 5 26 34 27 46 1 58 4 92 26 55 36 96 79 137 142 23 35 45 63 50
63 5 0 7 4 3 9 -3 5 2 16 10 25 9 8 15 17 13 18 -3 4 81 198 99 227 8 13 10
20 4 17 -5 -4 -3 10 5 30 8 20 12 44 8 53 -4 9 -7 18 -6 21 0 3 -23 4 -52 4
-59 -2 -131 -30 -160 -62 -10 -12 -24 -19 -30 -15 -6 3 -8 3 -4 -1 3 -4 -11
-31 -33 -59 -21 -29 -53 -78 -70 -109 -16 -32 -32 -58 -35 -58 -8 0 11 93 52
260 l26 106 52 0 c65 0 117 27 187 96 96 94 169 199 248 356 l41 82 -32 16
c-97 50 -254 -37 -366 -203 -19 -29 -36 -53 -38 -53 -4 0 48 149 91 260 34 90
55 128 55 103 0 -14 97 -14 130 1 82 34 199 132 288 240 46 56 142 188 142
196 0 23 -60 50 -112 50 -80 0 -164 -45 -261 -140 -42 -41 -77 -74 -77 -72 0
8 145 280 162 305 17 23 23 26 35 15 8 -6 41 -12 73 -12 48 0 72 7 142 41 45
23 95 53 110 68 15 14 31 25 36 25 5 0 18 10 29 23 12 12 47 47 80 78 32 31
73 73 91 93 l34 38 -22 24 c-58 60 -173 53 -300 -20 -19 -11 -37 -23 -40 -26
-11 -12 -89 -70 -94 -70 -6 0 157 230 189 268 16 18 19 18 49 3 36 -18 115
-22 166 -8 85 23 326 157 338 189 2 4 8 8 12 8 5 0 28 17 51 38 35 33 40 42
31 59 -50 93 -230 82 -402 -26 l-55 -34 30 33 c17 19 73 78 126 133 l97 99 31
-23 c56 -42 167 -41 295 2 115 39 326 150 326 172 0 19 -43 68 -72 83 -62 32
-204 21 -312 -26 -27 -11 -50 -19 -52 -17 -3 3 58 52 185 149 l75 57 33 -29
c78 -69 227 -67 453 5 41 13 96 33 122 44 45 21 46 23 37 50 -14 39 -56 77
-105 95 -51 18 -200 14 -266 -7 -27 -8 -48 -13 -48 -11 0 2 17 13 38 24 20 11
51 29 67 38 17 10 64 37 106 60 l76 42 29 -31 c40 -42 74 -58 152 -73 97 -17
189 -12 358 21 106 20 106 20 92 67 -27 88 -134 135 -294 131 l-88 -2 44 21
c25 12 81 27 125 35 141 23 329 92 421 155 37 25 37 26 14 27 -142 9 -220 -1
-332 -40 -56 -19 -159 -71 -186 -94 -7 -6 -36 -18 -64 -28 l-51 -17 44 37
c114 95 182 185 195 258 6 33 -14 103 -30 103 -6 0 -51 -21 -100 -46z"/>
<path d="M10900 10920 c-9 -6 -10 -10 -3 -10 6 0 15 5 18 10 8 12 4 12 -15 0z"/>
<path d="M4839 10713 c-13 -16 -12 -17 4 -4 16 13 21 21 13 21 -2 0 -10 -8
-17 -17z"/>
<path d="M5808 10685 c-2 -2 -50 -6 -108 -10 -190 -12 -191 -12 -185 -47 6
-31 19 -35 75 -28 32 4 53 3 58 -4 4 -6 7 -35 7 -63 0 -29 2 -53 5 -53 3 0 7
-39 8 -88 7 -163 6 -163 54 -153 38 8 38 8 23 201 -14 181 -14 170 9 171 20 1
76 5 102 8 8 1 9 12 5 34 -5 24 -12 32 -29 33 -12 1 -23 0 -24 -1z"/>
<path d="M5968 10681 c-12 -5 -14 -42 -13 -216 l1 -210 41 -3 41 -3 -3 208
c-2 114 -3 213 -4 219 -1 11 -39 14 -63 5z"/>
<path d="M6320 10670 c-103 -19 -171 -101 -175 -212 -5 -140 100 -238 243
-226 123 11 197 100 194 233 -1 59 -5 71 -40 121 -47 66 -135 100 -222 84z
m105 -76 c36 -14 58 -42 70 -91 20 -77 -11 -160 -72 -192 -55 -28 -158 5 -181
59 -23 51 -18 143 10 178 42 55 106 71 173 46z"/>
<path d="M10515 10669 c-4 -6 -5 -12 -2 -15 2 -3 7 2 10 11 7 17 1 20 -8 4z"/>
<path d="M5361 10643 c-24 -5 -25 -18 -5 -103 3 -14 7 -38 8 -55 2 -16 7 -46
11 -65 21 -96 -4 -153 -73 -165 -61 -10 -113 37 -116 104 -1 17 -3 31 -6 31
-3 0 -7 12 -8 28 -1 15 -4 38 -7 52 -3 14 -8 39 -10 55 -12 73 -10 70 -46 68
-19 0 -37 -1 -41 -2 -7 -1 -5 -26 12 -111 5 -25 11 -58 14 -75 17 -116 35
-155 83 -192 32 -24 45 -28 103 -27 132 1 203 87 180 217 -5 23 -11 62 -15 87
-11 74 -13 85 -15 90 -4 10 -7 26 -8 48 -2 22 -10 24 -61 15z"/>
<path d="M6719 10628 c0 -2 -2 -12 -4 -23 -4 -30 -15 -84 -26 -135 -15 -63
-18 -79 -25 -124 -3 -22 -8 -44 -11 -49 -2 -4 -6 -20 -8 -35 -2 -15 -5 -34 -7
-41 -3 -15 52 -35 64 -23 4 4 10 23 12 42 6 40 14 75 16 75 1 0 3 11 5 25 1
14 8 44 14 68 7 23 9 47 6 52 -3 6 0 10 7 9 7 0 48 -72 90 -160 63 -129 83
-161 104 -170 33 -12 41 -5 48 42 3 20 8 42 10 50 3 8 7 30 10 49 3 19 8 46
12 60 3 14 7 34 9 45 2 11 8 40 14 65 24 107 24 108 -10 115 -33 7 -53 -8 -44
-32 2 -7 0 -13 -6 -13 -6 0 -8 -3 -5 -8 2 -4 -2 -33 -9 -65 -7 -32 -14 -60
-14 -62 -1 -3 -1 -6 -2 -7 0 -2 -2 -14 -5 -28 -12 -75 -12 -75 -98 98 -46 93
-92 172 -101 176 -16 6 -44 8 -46 4z"/>
<path d="M10353 10595 c0 -8 4 -12 9 -9 5 3 6 10 3 15 -9 13 -12 11 -12 -6z"/>
<path d="M4326 10558 c3 -5 10 -6 15 -3 13 9 11 12 -6 12 -8 0 -12 -4 -9 -9z"/>
<path d="M4796 10514 c-82 -24 -151 -45 -153 -48 -8 -8 9 -56 21 -56 6 0 33 7
60 15 28 8 53 12 56 8 6 -8 90 -293 94 -320 3 -21 11 -23 48 -13 37 11 39 20
21 70 -3 8 -7 20 -8 25 -4 16 -32 115 -54 190 -11 39 -17 73 -13 77 4 3 30 13
57 21 45 13 50 17 50 43 0 18 -6 29 -15 30 -8 1 -82 -18 -164 -42z"/>
<path d="M7347 10438 c-8 -18 -20 -51 -27 -73 -7 -22 -16 -44 -20 -50 -5 -5
-8 -12 -8 -15 2 -7 -22 -78 -40 -120 -8 -19 -14 -36 -14 -37 1 -2 -5 -18 -13
-37 -14 -33 -14 -36 4 -46 38 -20 49 -11 76 63 15 39 36 92 46 116 11 24 19
50 19 57 0 28 20 13 29 -23 6 -21 22 -74 37 -118 14 -44 27 -87 29 -95 16 -61
36 -96 60 -108 14 -8 28 -12 29 -10 5 7 146 393 146 400 0 6 -62 31 -65 26 -1
-2 -24 -64 -51 -139 -40 -113 -51 -133 -61 -120 -6 9 -9 19 -7 22 2 4 -12 53
-32 110 -19 57 -37 109 -38 114 -18 69 -30 96 -46 105 -30 16 -39 12 -53 -22z"/>
<path d="M4488 10417 l-26 -12 25 -65 c14 -36 29 -74 33 -85 5 -11 28 -73 51
-137 41 -115 42 -118 68 -112 39 10 55 28 43 50 -6 11 -19 44 -30 74 -11 30
-39 105 -61 165 -23 61 -41 116 -41 123 0 15 -27 15 -62 -1z"/>
<path d="M4313 10356 c-4 -5 0 -6 7 -1 9 5 11 4 6 -3 -4 -7 -15 -12 -25 -12
-9 0 -21 -4 -26 -9 -19 -18 -178 -80 -188 -74 -6 3 -7 1 -3 -5 4 -7 1 -12 -10
-12 -12 0 -15 -6 -10 -22 3 -13 6 -29 6 -36 0 -15 23 -10 84 19 22 11 41 19
43 19 5 0 67 -134 65 -142 -1 -3 5 -12 13 -18 8 -7 15 -18 15 -25 0 -16 58
-145 66 -145 12 0 64 31 64 39 0 5 -14 40 -31 77 -17 38 -42 92 -55 119 -12
28 -24 57 -26 65 -2 8 -9 21 -15 28 -7 7 -13 19 -13 26 0 16 48 39 62 30 6 -4
8 -2 5 3 -4 6 6 16 22 23 29 11 29 12 13 40 -16 27 -56 37 -69 16z"/>
<path d="M10350 10280 c0 -5 5 -10 11 -10 5 0 7 5 4 10 -3 6 -8 10 -11 10 -2
0 -4 -4 -4 -10z"/>
<path d="M7918 10202 c-18 -15 -40 -34 -48 -42 -9 -8 -47 -42 -85 -75 -116
-102 -175 -157 -175 -165 0 -7 45 -30 60 -30 6 0 27 16 49 35 l39 35 78 -40
79 -41 -3 -58 c-3 -58 -3 -59 29 -75 18 -9 33 -15 35 -13 1 1 5 27 8 57 3 30
9 80 12 110 7 58 8 72 18 210 l7 86 -35 17 c-35 16 -36 16 -68 -11z m28 -94
c-3 -13 -5 -23 -6 -23 -1 0 -3 -27 -6 -60 -5 -70 -7 -85 -9 -85 -1 0 -29 14
-63 30 l-60 31 47 44 c27 25 53 45 58 45 6 0 13 9 16 20 7 28 28 25 23 -2z"/>
<path d="M3907 10160 c-1 -3 -18 -13 -38 -23 -41 -21 -79 -80 -79 -122 0 -44
38 -101 74 -112 34 -11 51 -10 130 5 45 9 51 8 72 -13 20 -20 22 -28 13 -53
-11 -31 -64 -65 -97 -61 -54 5 -63 0 -60 -33 3 -28 7 -32 36 -36 39 -4 96 13
135 40 57 40 76 128 41 187 -30 50 -88 64 -184 42 -61 -13 -98 16 -80 63 11
31 36 44 84 48 21 1 40 7 44 13 11 17 10 55 -2 56 -38 4 -86 3 -89 -1z"/>
<path d="M9910 10136 c0 -2 8 -10 18 -17 15 -13 16 -12 3 4 -13 16 -21 21 -21
13z"/>
<path d="M10035 10121 c-3 -5 -2 -12 3 -15 5 -3 9 1 9 9 0 17 -3 19 -12 6z"/>
<path d="M8220 9992 c-24 -37 -47 -69 -50 -72 -3 -3 -17 -23 -30 -45 -13 -22
-26 -42 -30 -45 -10 -9 -80 -120 -80 -126 0 -10 33 -33 46 -34 9 0 73 85 119
158 6 9 15 22 22 29 6 7 15 22 18 33 10 30 26 24 21 -7 -8 -52 -16 -118 -21
-188 -4 -61 -3 -72 14 -82 16 -10 36 -3 127 44 60 30 113 59 119 64 5 5 16 9
24 9 11 0 10 -5 -6 -22 -23 -26 -141 -201 -149 -222 -3 -7 7 -21 21 -30 25
-17 27 -17 40 1 46 60 225 332 225 340 0 5 -15 18 -33 28 -33 18 -34 17 -78
-7 -24 -14 -88 -48 -142 -76 l-97 -51 5 47 c10 78 13 114 20 182 4 36 8 70 10
77 4 11 -48 63 -63 63 -4 0 -27 -30 -52 -68z"/>
<path d="M3610 9981 l-25 -19 24 -44 c14 -24 28 -45 31 -48 8 -6 110 -149 110
-154 0 -2 -35 7 -77 21 -43 14 -126 39 -184 55 -102 30 -106 30 -127 13 -19
-17 -20 -19 -4 -44 9 -14 19 -28 22 -31 3 -3 52 -71 108 -152 57 -82 104 -148
106 -148 2 0 15 10 29 23 l26 22 -75 105 c-106 148 -104 140 -39 121 29 -8 51
-20 48 -25 -4 -5 -1 -6 6 -2 7 4 20 4 29 0 18 -7 27 -10 50 -12 7 -1 11 -5 9
-9 -3 -5 11 -8 31 -9 20 0 38 -6 40 -12 2 -7 8 -10 13 -6 5 3 25 0 45 -6 29
-10 39 -9 59 4 24 16 24 18 9 41 -9 13 -13 29 -9 35 4 6 1 9 -5 8 -7 -2 -17 6
-23 16 -7 11 -22 31 -34 45 -13 14 -23 29 -23 33 0 3 -6 13 -13 20 -28 28 -66
92 -60 101 3 6 1 7 -5 3 -7 -4 -12 -4 -12 1 0 4 -13 23 -28 40 l-27 33 -25
-19z"/>
<path d="M3197 9672 l-26 -27 27 -35 c14 -19 29 -37 33 -40 3 -3 30 -34 60
-70 29 -36 58 -70 64 -76 5 -6 24 -28 40 -49 52 -67 55 -68 79 -48 11 10 24
22 28 27 5 7 -84 128 -122 166 -3 3 -38 44 -79 93 -40 48 -74 87 -75 87 -1 0
-14 -12 -29 -28z"/>
<path d="M8714 9644 c-27 -31 -63 -73 -80 -93 -17 -20 -58 -67 -91 -105 l-60
-69 41 -36 c23 -20 43 -38 46 -41 3 -3 31 -27 64 -54 l58 -49 19 24 c24 31 24
34 -6 53 -14 9 -45 35 -70 59 l-45 42 36 43 c20 23 39 42 42 42 4 0 30 -20 57
-45 28 -25 53 -45 56 -45 3 0 14 9 25 21 19 21 19 21 -39 73 l-58 51 40 44 41
45 32 -30 c18 -16 35 -31 38 -34 3 -3 20 -18 39 -33 32 -26 35 -27 52 -11 22
20 24 40 5 51 -13 8 -123 102 -158 136 -10 9 -22 17 -27 17 -5 0 -30 -25 -57
-56z"/>
<path d="M4962 9601 c-11 -6 -8 -25 13 -97 14 -49 28 -96 30 -104 2 -8 8 -28
15 -45 6 -16 11 -31 10 -33 -1 -1 7 -31 18 -65 34 -111 52 -172 53 -179 0 -4
7 -27 15 -50 9 -24 17 -50 19 -58 1 -8 11 -42 21 -75 10 -33 19 -64 20 -70 6
-31 56 -193 64 -207 6 -10 10 -26 10 -35 0 -10 10 -45 21 -78 11 -33 22 -69
25 -80 2 -11 13 -50 25 -87 11 -37 20 -69 19 -70 0 -2 8 -28 18 -58 11 -30 20
-57 20 -60 0 -3 3 -12 6 -20 12 -37 117 -397 120 -410 4 -19 8 -19 82 4 l61
18 -19 52 c-10 28 -21 58 -23 66 -2 8 -22 67 -45 130 -23 63 -48 135 -56 160
-8 25 -19 54 -24 65 -10 24 -80 224 -85 245 -3 8 -16 47 -31 85 -14 39 -27 77
-29 85 -2 8 -15 43 -29 78 -13 34 -25 65 -26 67 -1 9 -8 29 -40 120 -17 50
-36 104 -42 120 -6 17 -17 44 -24 62 -8 17 -14 38 -14 46 0 9 -4 18 -9 21 -5
3 -11 18 -14 33 -3 16 -22 73 -42 128 -20 55 -38 107 -40 117 -2 9 -11 30 -19
47 -9 17 -15 31 -12 31 2 0 -3 17 -11 38 -7 20 -16 45 -20 55 -6 19 -12 21
-31 8z"/>
<path d="M7005 9598 c-3 -7 -23 -65 -45 -128 -22 -63 -43 -122 -47 -130 -3 -8
-7 -19 -9 -25 -14 -52 -91 -261 -97 -266 -5 -3 -8 -9 -8 -13 1 -3 1 -7 0 -8 0
-2 -2 -14 -5 -27 -2 -14 -8 -29 -13 -35 -5 -6 -12 -27 -16 -46 -4 -19 -11 -41
-15 -50 -11 -21 -32 -78 -31 -84 0 -3 -8 -26 -19 -51 -11 -25 -20 -47 -20 -50
-1 -6 2 3 -60 -175 -67 -188 -89 -252 -97 -270 -3 -8 -8 -24 -10 -34 -2 -11
-8 -25 -14 -33 -6 -7 -9 -13 -6 -13 4 0 -2 -20 -13 -44 -10 -24 -16 -47 -13
-50 4 -3 2 -6 -4 -6 -5 0 -10 -6 -10 -12 -1 -14 -68 -211 -83 -243 -21 -46
-17 -56 33 -75 26 -10 47 -16 47 -13 0 3 6 0 14 -6 8 -7 16 -8 19 -4 8 12 47
130 50 150 1 10 5 23 9 28 3 6 9 26 14 45 10 43 9 42 17 60 3 8 11 35 17 60 7
25 21 72 32 105 11 33 21 69 23 80 2 11 15 55 29 98 13 42 22 77 20 77 -3 0 0
9 6 21 6 11 13 30 16 42 2 12 12 49 22 82 11 33 27 87 36 120 10 33 22 71 27
85 5 14 12 36 15 50 6 29 9 39 16 60 10 26 50 162 52 174 1 6 4 16 8 21 3 6 9
26 14 45 4 19 8 37 9 40 5 20 41 138 61 199 13 40 23 76 22 80 -1 3 2 13 5 21
18 41 45 145 41 152 -8 12 -34 10 -39 -4z"/>
<path d="M2935 9392 c-52 -12 -179 -137 -182 -180 -1 -18 1 -22 6 -13 6 10 36
-14 114 -90 58 -56 104 -106 101 -111 -3 -5 -1 -7 4 -6 5 2 26 -12 45 -29 l36
-33 26 27 c14 15 25 30 25 33 0 4 -25 30 -55 59 -30 29 -55 57 -55 62 0 10 41
34 53 31 4 -1 24 -5 45 -8 20 -3 44 -8 52 -11 8 -3 23 -5 34 -4 10 2 15 -2 12
-8 -4 -6 4 -7 23 -1 16 4 33 5 37 2 4 -4 4 -2 1 4 -8 14 17 37 28 26 5 -4 5
-1 0 7 -4 8 -2 17 6 22 12 7 11 9 -1 10 -25 1 -112 15 -145 23 -11 2 -33 5
-49 5 -23 1 -27 4 -21 19 37 87 -47 186 -140 164z m58 -94 c35 -35 27 -88 -22
-132 -20 -18 -21 -18 -71 30 l-51 49 28 22 c15 13 24 23 18 23 -5 1 1 7 14 14
30 17 64 14 84 -6z"/>
<path d="M9137 9315 c-15 -14 -27 -24 -27 -21 0 3 -17 -12 -37 -33 -21 -21
-81 -77 -134 -123 l-96 -85 26 -29 c26 -29 52 -37 68 -20 5 5 2 6 -6 1 -9 -5
-12 -4 -10 4 3 7 9 13 14 14 5 1 27 21 49 44 23 24 45 43 50 43 9 0 60 -53
107 -111 l29 -37 -37 -32 c-21 -18 -53 -45 -72 -62 l-34 -29 23 -24 c12 -13
19 -28 16 -33 -3 -6 2 -8 14 -5 11 3 20 10 20 15 0 6 6 6 14 -1 12 -10 13 -8
9 9 -3 11 -2 20 3 18 5 -1 25 14 45 34 28 30 38 35 49 25 10 -9 11 -9 6 1 -9
16 12 44 27 35 6 -3 7 -1 3 5 -3 6 10 23 31 39 20 15 57 46 80 69 l43 40 -30
29 -30 29 -27 -25 c-15 -13 -43 -39 -63 -56 -19 -18 -37 -33 -40 -33 -10 1
-36 27 -88 87 l-52 61 28 21 c16 11 32 17 36 13 4 -4 6 -2 4 3 -3 10 51 69 70
76 5 2 -5 19 -22 37 l-31 32 -28 -25z"/>
<path d="M8860 9286 c0 -2 8 -10 18 -17 15 -13 16 -12 3 4 -13 16 -21 21 -21
13z"/>
<path d="M8790 9180 c0 -5 5 -10 11 -10 5 0 7 5 4 10 -3 6 -8 10 -11 10 -2 0
-4 -4 -4 -10z"/>
<path d="M2631 9099 l-23 -31 34 -31 c19 -18 43 -37 54 -44 10 -6 18 -16 17
-22 -2 -6 3 -10 10 -8 6 1 11 -4 9 -11 -1 -8 2 -11 8 -7 5 3 24 -4 41 -16 24
-17 28 -24 17 -31 -9 -7 -7 -8 7 -4 15 5 25 -1 38 -23 23 -39 22 -76 -3 -101
-11 -11 -17 -20 -13 -20 4 0 -2 -6 -12 -14 -41 -30 -110 -7 -185 61 -14 13
-28 23 -31 23 -3 0 -17 9 -30 21 -13 11 -35 29 -47 40 -28 24 -44 20 -68 -17
-15 -22 -16 -27 -3 -34 8 -5 60 -45 117 -89 57 -44 111 -82 120 -85 99 -30
180 4 227 94 19 37 28 153 12 143 -6 -4 -8 1 -4 11 4 10 3 15 -3 11 -6 -3 -10
-2 -10 4 0 6 -48 49 -107 96 -60 47 -116 93 -126 101 -22 18 -20 19 -46 -17z"/>
<path d="M3320 8940 c-9 -6 -10 -10 -3 -10 6 0 15 5 18 10 8 12 4 12 -15 0z"/>
<path d="M9350 8851 c-74 -54 -141 -96 -148 -93 -7 2 -12 0 -10 -6 2 -6 -13
-25 -32 -42 -19 -17 -30 -29 -24 -26 6 3 31 -22 55 -57 24 -34 49 -68 56 -75
7 -7 13 -16 13 -20 1 -4 10 -18 20 -31 19 -22 21 -23 45 -7 22 15 24 20 14 39
-7 12 -15 24 -18 27 -15 12 -71 95 -71 105 0 11 89 80 94 74 2 -2 18 -26 36
-54 42 -63 48 -67 77 -48 l23 15 -44 63 -45 62 49 36 49 36 52 -72 c28 -39 53
-74 55 -76 2 -2 16 1 30 8 17 7 24 17 20 27 -9 23 -147 214 -154 213 -4 0 -68
-44 -142 -98z"/>
<path d="M8916 8927 c3 -10 9 -15 12 -12 3 3 0 11 -7 18 -10 9 -11 8 -5 -6z"/>
<path d="M5989 8913 c-6 -37 -12 -132 -24 -393 -2 -47 -6 -123 -9 -170 -3 -47
-7 -146 -11 -220 -3 -74 -8 -159 -10 -187 l-3 -53 73 0 73 0 -4 58 c-2 31 -6
104 -9 162 -2 58 -7 155 -10 215 -3 61 -8 155 -10 210 -3 55 -8 152 -11 215
-4 63 -7 127 -8 143 -1 19 -6 27 -18 27 -10 0 -19 -3 -19 -7z"/>
<path d="M2685 8880 c-3 -6 1 -7 9 -4 18 7 21 14 7 14 -6 0 -13 -4 -16 -10z"/>
<path d="M9035 8880 c3 -5 8 -10 11 -10 2 0 4 5 4 10 0 6 -5 10 -11 10 -5 0
-7 -4 -4 -10z"/>
<path d="M8910 8840 c0 -5 5 -10 11 -10 5 0 7 5 4 10 -3 6 -8 10 -11 10 -2 0
-4 -4 -4 -10z"/>
<path d="M3010 8720 c0 -5 5 -10 11 -10 5 0 7 5 4 10 -3 6 -8 10 -11 10 -2 0
-4 -4 -4 -10z"/>
<path d="M3167 8719 c7 -7 15 -10 18 -7 3 3 -2 9 -12 12 -14 6 -15 5 -6 -5z"/>
<path d="M2340 8647 c-103 -57 -150 -186 -105 -289 11 -24 25 -47 32 -51 8 -5
11 -13 7 -18 -3 -5 -2 -8 3 -7 4 1 30 -11 58 -27 41 -24 60 -29 110 -29 34 1
73 8 91 17 104 54 159 201 110 296 -57 110 -208 163 -306 108z m160 -77 c80
-41 111 -119 75 -193 -45 -93 -167 -96 -250 -8 -25 27 -30 40 -30 84 0 112
102 170 205 117z"/>
<path d="M9669 8598 c-30 -16 -71 -40 -91 -54 -21 -13 -40 -24 -43 -24 -4 0
-171 -97 -184 -107 -3 -2 3 -19 12 -38 l17 -36 32 17 c18 9 50 28 70 41 46 29
52 29 65 1 8 -19 2 -39 -35 -114 l-45 -91 23 -38 24 -38 44 89 c24 49 45 95
45 102 0 16 8 15 35 -4 21 -14 57 -15 128 -3 21 4 56 68 56 103 0 34 -25 96
-75 182 l-23 42 -55 -30z m56 -104 c9 -14 19 -41 22 -60 5 -27 1 -37 -18 -54
-43 -36 -96 -19 -128 41 l-19 35 46 25 c26 13 49 27 50 32 7 15 30 6 47 -19z"/>
<path d="M7424 8428 c-17 -18 -66 -78 -109 -133 -44 -55 -84 -105 -90 -111 -5
-6 -21 -26 -35 -44 -14 -18 -29 -38 -35 -44 -5 -6 -73 -90 -150 -186 -76 -96
-142 -177 -145 -180 -3 -3 -17 -21 -32 -41 -26 -35 -26 -36 -7 -52 11 -10 23
-17 27 -17 4 0 19 -11 34 -25 l27 -25 19 20 c11 12 28 36 38 55 10 19 22 35
26 35 5 0 8 5 8 10 0 10 48 89 60 100 4 3 33 48 66 100 32 52 63 100 67 105 5
6 36 53 70 105 33 52 96 148 138 212 64 96 75 119 65 133 -10 14 -15 12 -42
-17z"/>
<path d="M4542 8438 c-9 -9 -6 -19 13 -44 14 -18 25 -34 25 -36 0 -3 131 -205
160 -248 6 -8 37 -55 69 -105 32 -49 104 -160 159 -245 142 -217 120 -200 186
-150 48 37 54 45 44 58 -7 9 -18 23 -25 32 -6 8 -36 44 -65 80 -29 36 -107
133 -173 215 -66 83 -122 152 -125 155 -3 3 -41 50 -85 105 -176 221 -161 205
-183 183z"/>
<path d="M8615 8366 c-33 -23 -123 -85 -200 -137 -77 -52 -142 -97 -145 -100
-16 -20 -134 -88 -144 -82 -6 3 -8 3 -4 -2 4 -4 -2 -17 -15 -27 -33 -30 -140
-93 -150 -90 -5 1 -6 -1 -3 -6 2 -4 -22 -26 -54 -47 -33 -22 -60 -43 -60 -47
0 -5 -5 -8 -11 -8 -6 0 -49 -28 -96 -62 -47 -34 -92 -61 -99 -61 -8 0 -14 -3
-14 -7 0 -7 -124 -100 -134 -100 -3 0 -17 -10 -30 -21 -14 -12 -33 -27 -44
-33 -33 -20 -87 -55 -97 -63 -25 -21 -175 -122 -175 -118 0 3 -8 -3 -18 -12
-11 -10 -31 -26 -45 -37 -27 -19 -27 -19 -7 -36 11 -10 20 -20 20 -24 0 -3 8
-14 19 -25 10 -10 21 -25 23 -32 4 -11 13 -8 41 11 20 14 37 28 37 33 0 4 7 7
15 7 8 0 15 4 15 8 0 4 34 32 76 62 42 30 86 62 98 72 11 10 26 21 31 25 6 5
31 25 56 45 32 26 49 34 57 26 7 -7 10 -6 9 5 -2 13 38 49 150 134 71 54 109
84 121 93 7 6 17 8 22 5 6 -3 10 0 10 7 0 7 33 38 72 68 40 30 80 60 88 67 27
22 383 295 510 392 69 52 131 100 137 107 7 7 18 14 25 16 15 5 3 38 -14 37
-7 0 -40 -19 -73 -43z"/>
<path d="M3294 8388 c-9 -14 5 -26 286 -240 124 -95 227 -175 230 -178 3 -3
21 -17 40 -30 19 -14 42 -30 50 -37 8 -6 92 -71 185 -143 94 -71 195 -149 225
-173 30 -23 103 -79 162 -124 60 -45 115 -88 122 -95 8 -7 66 -51 129 -98 63
-47 113 -88 110 -92 -2 -5 4 -8 14 -8 21 0 100 108 87 119 -27 23 -115 81
-123 81 -5 0 -11 4 -13 8 -2 8 -116 88 -213 152 -13 8 -68 47 -124 85 -55 39
-176 122 -268 185 -92 63 -172 118 -178 122 -30 25 -127 88 -135 88 -4 0 -10
4 -12 8 -1 4 -68 52 -148 107 -80 54 -167 114 -194 133 -118 82 -209 142 -216
142 -5 0 -12 -5 -16 -12z"/>
<path d="M2110 8319 c0 -5 -4 -8 -9 -5 -5 4 -7 -3 -4 -14 3 -11 1 -20 -4 -20
-21 0 -2 -57 31 -97 6 -8 16 -19 21 -26 6 -7 25 -31 44 -55 l33 -43 -35 3
c-20 1 -39 -1 -43 -4 -3 -4 -17 -3 -30 2 -13 5 -24 6 -24 1 0 -4 -20 -7 -45
-6 -25 1 -49 -1 -53 -4 -9 -6 -42 -65 -42 -76 0 -3 30 -3 68 -1 37 2 67 5 67
6 0 3 91 11 140 12 37 1 65 -6 110 -27 33 -17 63 -31 67 -33 7 -3 38 50 38 65
0 4 -34 23 -75 42 -57 26 -80 43 -100 73 -14 21 -23 43 -20 48 3 6 0 10 -7 10
-14 0 -108 130 -108 149 0 6 -4 11 -10 11 -5 0 -10 -5 -10 -11z"/>
<path d="M9860 8207 c-73 -34 -176 -81 -263 -121 l-57 -26 13 -32 c8 -18 33
-74 57 -125 l42 -91 29 10 c16 5 29 13 29 17 0 8 -52 122 -70 154 -9 15 -2 21
46 43 31 14 57 24 59 22 2 -2 14 -30 28 -63 26 -63 41 -74 70 -53 17 13 17 17
-12 81 l-30 67 44 20 c66 30 74 27 90 -30 1 -3 13 -29 26 -57 18 -40 29 -52
44 -50 45 6 45 14 -10 133 -29 64 -57 120 -62 124 -4 4 -37 -6 -73 -23z"/>
<path d="M1967 8159 c7 -7 15 -10 18 -7 3 3 -2 9 -12 12 -14 6 -15 5 -6 -5z"/>
<path d="M7945 8160 c-3 -6 1 -7 9 -4 18 7 21 14 7 14 -6 0 -13 -4 -16 -10z"/>
<path d="M1856 8082 c-3 -5 1 -9 9 -9 8 0 12 4 9 9 -3 4 -7 8 -9 8 -2 0 -6 -4
-9 -8z"/>
<path d="M1726 7842 c-3 -5 1 -9 9 -9 8 0 12 4 9 9 -3 4 -7 8 -9 8 -2 0 -6 -4
-9 -8z"/>
<path d="M5976 7643 c-2 -2 -32 -5 -67 -7 -328 -18 -657 -199 -875 -481 -85
-111 -191 -333 -197 -414 -1 -12 -4 -21 -7 -21 -3 0 -7 -10 -8 -22 -1 -13 -3
-31 -5 -42 -1 -14 6 -19 33 -22 31 -4 105 -16 165 -28 55 -11 154 -41 220 -67
17 -7 32 -13 35 -14 66 -23 223 -106 320 -170 149 -98 332 -264 386 -347 13
-21 29 -38 36 -38 6 0 8 3 5 7 -12 12 110 145 217 236 26 23 58 50 70 60 109
95 447 275 543 291 7 1 16 5 19 9 4 4 17 7 29 7 12 0 25 3 28 7 4 3 17 8 29 9
29 4 63 12 63 14 0 1 11 3 25 5 14 2 36 6 50 9 14 2 41 6 60 8 44 4 50 12 38
57 -5 20 -11 46 -13 58 -15 66 -101 274 -117 281 -5 2 -8 9 -8 17 0 7 -7 18
-15 25 -9 7 -13 20 -10 29 3 8 3 12 -1 9 -4 -4 -23 14 -42 40 -20 26 -41 52
-47 58 -123 133 -156 162 -254 227 -132 89 -293 158 -425 183 -12 2 -32 6 -46
9 -23 5 -87 11 -193 18 -21 2 -39 2 -41 0z"/>
<path d="M1751 7438 c-12 -35 -26 -72 -31 -83 -11 -25 -65 -194 -81 -255 -7
-25 -14 -49 -15 -55 -10 -32 -63 -257 -70 -295 -4 -25 -8 -47 -9 -50 -1 -3 -5
-25 -9 -50 -5 -25 -10 -54 -12 -65 -2 -11 -7 -40 -10 -65 -3 -25 -8 -53 -9
-62 -3 -15 -7 -52 -21 -183 -22 -220 -22 -669 1 -865 2 -19 6 -57 9 -85 4 -27
9 -70 12 -95 3 -25 9 -67 14 -95 5 -27 12 -66 15 -85 35 -231 144 -617 245
-869 233 -585 563 -1086 1010 -1531 194 -195 215 -214 320 -300 30 -25 57 -47
60 -50 3 -3 32 -25 65 -50 33 -25 64 -48 70 -53 310 -236 750 -474 1134 -613
268 -98 599 -185 826 -219 22 -3 67 -10 100 -15 33 -5 87 -12 120 -15 33 -4
76 -8 95 -11 181 -22 673 -22 860 1 19 2 57 7 84 10 63 7 206 27 291 41 17 3
50 10 75 15 25 6 59 13 75 16 17 2 91 20 165 40 74 19 140 36 145 37 21 5 272
89 300 101 17 7 70 27 118 45 48 18 90 37 93 42 3 4 12 8 21 8 51 0 536 266
737 404 49 33 103 71 120 82 64 44 298 233 383 312 173 158 358 353 472 496
25 32 56 69 68 83 50 57 308 433 330 483 4 8 29 53 56 100 51 87 179 348 213
433 14 34 23 46 34 41 12 -4 12 -3 3 7 -9 9 -9 20 3 48 21 50 60 159 95 266
16 50 32 97 36 105 9 21 10 27 12 51 0 11 4 18 9 16 4 -3 7 7 8 21 0 15 17 95
37 177 49 202 74 350 103 610 23 209 23 649 -1 870 -18 169 -20 183 -51 364
-38 223 -100 464 -180 695 -41 117 -55 148 -71 154 -19 6 -16 -17 13 -115 14
-49 30 -108 35 -132 5 -23 14 -62 20 -85 6 -22 13 -52 15 -66 3 -14 11 -56 19
-95 8 -38 17 -92 21 -120 3 -27 8 -57 9 -65 2 -9 6 -43 10 -75 4 -33 8 -70 10
-81 4 -26 15 -164 20 -254 12 -196 2 -539 -20 -710 -3 -19 -7 -55 -10 -80 -3
-25 -7 -56 -10 -70 -3 -14 -7 -41 -10 -60 -3 -19 -7 -46 -10 -60 -3 -14 -7
-41 -10 -60 -4 -19 -11 -55 -16 -80 -6 -25 -13 -56 -15 -70 -25 -138 -123
-451 -204 -655 -79 -196 -182 -414 -202 -426 -5 -3 -10 -10 -10 -15 -1 -22
-22 -53 -31 -47 -6 3 -7 1 -3 -5 6 -10 -57 -134 -88 -172 -7 -8 -21 -32 -31
-52 -11 -21 -23 -38 -27 -38 -5 0 -8 -5 -8 -11 0 -10 -65 -106 -80 -119 -4 -3
-9 -12 -12 -20 -7 -19 -164 -224 -232 -304 -116 -136 -334 -360 -359 -369 -10
-4 -15 -11 -12 -17 3 -5 1 -10 -4 -10 -6 0 -21 -11 -33 -25 -13 -15 -28 -23
-37 -20 -9 3 -12 3 -9 -1 4 -4 3 -15 -3 -26 -6 -11 -13 -17 -16 -15 -2 3 -22
-11 -43 -31 -50 -48 -91 -78 -102 -74 -5 1 -7 -2 -4 -6 6 -10 -148 -128 -304
-233 -129 -86 -131 -88 -162 -100 -16 -6 -28 -15 -28 -21 0 -5 -4 -7 -9 -4 -5
3 -14 -1 -21 -9 -7 -8 -16 -13 -20 -10 -4 3 -11 -2 -14 -11 -3 -8 -10 -13 -15
-10 -5 4 -11 3 -13 -1 -9 -22 -368 -199 -538 -266 -212 -83 -597 -198 -740
-221 -19 -3 -60 -10 -90 -16 -30 -6 -71 -13 -90 -16 -19 -2 -64 -9 -100 -14
-64 -10 -83 -12 -245 -27 -106 -10 -598 -10 -700 0 -94 9 -307 35 -350 42 -16
3 -57 10 -90 16 -259 46 -584 140 -855 249 -193 77 -608 287 -618 312 -2 4 -8
8 -13 8 -12 0 -213 131 -217 142 -2 4 -8 8 -13 8 -10 0 -132 91 -137 102 -2 5
-8 8 -14 8 -17 0 -98 72 -98 87 0 8 -5 11 -10 8 -6 -4 -23 5 -38 19 -57 53
-97 86 -105 86 -5 0 -5 5 -2 10 3 6 0 10 -8 10 -8 0 -31 18 -51 40 -20 22 -39
40 -42 40 -6 0 -143 138 -244 247 -391 419 -730 1000 -920 1573 -35 106 -92
308 -105 368 -33 161 -55 274 -59 302 -3 19 -10 69 -16 110 -30 203 -35 297
-35 600 0 245 6 394 20 470 2 14 7 52 10 85 7 66 53 344 59 354 2 3 7 23 10
43 8 51 76 309 87 330 7 14 -5 28 -25 28 -2 0 -13 -28 -25 -62z"/>
<path d="M1310 7441 c0 -6 4 -13 10 -16 6 -3 7 1 4 9 -7 18 -14 21 -14 7z"/>
<path d="M1580 7446 c0 -2 8 -10 18 -17 15 -13 16 -12 3 4 -13 16 -21 21 -21
13z"/>
<path d="M1330 7379 c0 -5 5 -7 10 -4 6 3 10 8 10 11 0 2 -4 4 -10 4 -5 0 -10
-5 -10 -11z"/>
<path d="M7526 7358 c3 -5 10 -6 15 -3 13 9 11 12 -6 12 -8 0 -12 -4 -9 -9z"/>
<path d="M7316 7278 c3 -5 10 -6 15 -3 13 9 11 12 -6 12 -8 0 -12 -4 -9 -9z"/>
<path d="M1310 7240 c0 -5 5 -10 11 -10 5 0 7 5 4 10 -3 6 -8 10 -11 10 -2 0
-4 -4 -4 -10z"/>
<path d="M8325 7218 c-69 -20 -292 -79 -314 -84 -14 -3 -28 -7 -33 -10 -4 -3
-16 -7 -25 -9 -15 -2 -90 -22 -153 -40 -41 -12 -136 -38 -145 -40 -43 -10 -74
-18 -95 -26 -14 -4 -36 -11 -50 -13 -14 -3 -46 -11 -72 -19 -26 -8 -49 -12
-52 -9 -3 2 -8 -2 -12 -11 -5 -15 21 -114 35 -128 3 -4 58 13 121 38 63 24
120 46 125 47 6 2 24 9 40 15 17 7 73 28 125 48 52 19 104 39 115 44 11 5 110
43 220 84 110 42 204 80 209 85 4 4 4 15 0 22 -7 11 -17 13 -39 6z"/>
<path d="M3647 7206 c-3 -8 0 -19 6 -24 16 -12 175 -72 193 -72 8 0 14 -4 14
-10 0 -5 7 -10 15 -10 9 0 32 -7 53 -16 20 -10 42 -18 49 -19 17 -4 175 -65
195 -76 10 -5 22 -9 27 -9 5 0 26 -8 47 -17 22 -9 41 -17 44 -18 6 0 66 -23
95 -36 45 -19 208 -79 215 -79 4 0 16 28 27 63 23 72 24 70 -65 93 -31 9 -82
22 -112 30 -30 9 -98 26 -150 40 -52 14 -111 31 -131 39 -20 8 -39 12 -41 9
-3 -2 -21 3 -41 11 -21 8 -37 13 -37 10 0 -3 -8 -1 -17 4 -10 5 -31 12 -48 15
-32 6 -39 7 -210 55 -129 36 -121 35 -128 17z"/>
<path d="M4495 6520 c-11 -5 -36 -14 -55 -21 -47 -18 -107 -74 -132 -122 -22
-45 -25 -55 -33 -140 -3 -34 -8 -78 -10 -97 -3 -19 -8 -61 -11 -92 -3 -32 -7
-70 -9 -85 -2 -16 -6 -53 -9 -83 -3 -30 -9 -77 -12 -105 -3 -27 -8 -70 -10
-95 -3 -25 -7 -58 -9 -75 -2 -16 -6 -55 -9 -85 -8 -77 -17 -150 -22 -185 -3
-16 -7 -61 -9 -100 -3 -38 -5 -70 -5 -70 -3 0 -8 -33 -14 -90 -4 -33 -8 -76
-11 -95 -2 -19 -7 -59 -10 -87 -9 -89 -16 -156 -21 -193 -13 -100 -12 -182 2
-215 8 -19 18 -35 23 -35 6 0 12 -8 15 -17 4 -10 29 -29 56 -42 40 -18 70 -24
152 -27 112 -3 220 -11 265 -18 15 -2 48 -8 73 -11 53 -9 54 -9 145 -29 201
-46 416 -129 592 -229 45 -26 64 -32 71 -24 45 56 191 329 217 407 1 3 6 16
12 30 6 14 18 42 26 63 9 20 13 37 10 37 -3 0 -1 6 5 13 8 9 29 71 47 137 1 3
4 12 8 20 3 8 17 54 32 103 14 48 29 87 33 87 4 0 24 -5 46 -11 26 -7 41 -7
45 -1 6 10 7 730 1 742 -1 3 -2 8 -1 12 0 4 -9 38 -21 75 -12 37 -22 70 -23
73 0 3 -13 29 -28 57 -46 89 -245 275 -402 376 -99 64 -289 157 -350 172 -5 1
-17 5 -25 8 -24 9 -122 35 -155 41 -16 3 -41 7 -55 10 -87 19 -389 29 -425 16z"/>
<path d="M7237 6524 c-1 -1 -27 -5 -57 -8 -30 -3 -66 -8 -80 -11 -14 -3 -40
-8 -59 -11 -65 -11 -210 -52 -226 -64 -5 -4 -21 -11 -35 -15 -47 -14 -205 -97
-288 -152 -165 -108 -345 -281 -393 -376 -16 -31 -40 -97 -52 -145 -22 -83
-23 -103 -22 -447 0 -403 -7 -369 72 -351 29 7 32 5 43 -29 7 -20 13 -44 15
-53 2 -9 4 -17 5 -17 1 0 3 -11 6 -24 2 -14 9 -30 15 -38 6 -7 9 -13 5 -13 -3
0 3 -22 14 -50 11 -27 17 -50 14 -50 -4 0 -1 -6 5 -13 6 -8 12 -22 14 -33 5
-26 19 -63 51 -136 9 -20 16 -38 16 -41 0 -22 131 -271 178 -339 17 -26 32
-51 32 -57 0 -15 3 -14 60 19 28 17 55 30 60 30 6 0 10 5 10 10 0 6 3 9 8 8 4
-1 32 9 62 24 82 39 148 68 154 68 2 0 17 5 33 12 15 6 33 12 38 14 6 1 36 12
68 23 31 11 57 18 57 15 0 -3 8 0 18 5 11 6 30 12 43 15 13 2 47 10 74 16 71
16 72 17 155 29 126 18 161 21 280 25 126 5 163 11 168 26 2 6 8 8 12 5 5 -3
27 12 48 32 47 45 66 103 58 177 -3 28 -8 78 -11 111 -4 33 -9 74 -11 90 -3
17 -7 48 -9 70 -4 45 -14 145 -20 190 -2 17 -7 53 -10 80 -3 28 -7 66 -9 85
-3 19 -7 62 -10 95 -8 89 -19 188 -32 280 -2 17 -6 62 -9 100 -3 39 -8 77 -11
87 -2 9 -7 43 -9 75 -2 32 -6 72 -9 88 -3 17 -8 59 -11 95 -9 86 -12 115 -20
175 -4 28 -7 61 -7 75 0 28 -30 95 -56 125 -17 20 -115 91 -119 87 -2 -1 -4
-2 -5 -1 -30 9 -65 11 -176 13 -72 2 -133 1 -135 0z"/>
<path d="M3895 5642 c-75 -25 -99 -75 -110 -225 -2 -23 -5 -55 -8 -72 -4 -16
-9 -59 -12 -95 -3 -36 -7 -76 -9 -90 -3 -14 -7 -52 -11 -85 -3 -33 -10 -96
-16 -140 -15 -120 -17 -144 -24 -215 -3 -36 -8 -76 -10 -90 -3 -14 -7 -54 -10
-89 -3 -35 -7 -71 -9 -80 -3 -9 -7 -45 -11 -81 -3 -36 -7 -76 -10 -90 -2 -14
-6 -47 -9 -75 -11 -102 -16 -151 -20 -180 -23 -160 -20 -168 49 -133 42 21
203 76 245 84 14 3 33 7 42 10 36 11 86 18 268 40 41 5 335 8 335 3 0 -1 16
-3 35 -4 48 -3 121 -14 183 -26 29 -6 64 -12 79 -14 15 -2 46 -9 70 -16 24 -6
48 -12 53 -13 85 -19 312 -98 428 -150 80 -36 74 -11 -8 31 -82 42 -127 63
-135 63 -4 0 -29 10 -56 22 -27 12 -53 23 -59 24 -5 1 -59 18 -120 37 -60 20
-126 39 -145 43 -19 4 -37 8 -40 9 -74 18 -166 34 -225 41 -27 3 -78 9 -112
13 -34 4 -133 6 -220 4 -188 -3 -232 -8 -378 -38 -91 -19 -109 -23 -112 -25
-2 -2 -6 -3 -10 -5 -5 -1 -17 -5 -28 -9 -45 -17 -45 -17 -40 32 3 26 7 56 9
68 2 12 7 45 11 75 3 30 8 65 10 79 3 14 7 39 9 55 7 46 18 118 21 136 2 9 6
40 10 70 3 30 8 61 10 69 3 8 7 32 10 54 9 78 16 122 22 161 4 22 7 47 8 55 1
8 4 33 8 55 4 22 9 58 12 80 3 23 7 50 9 60 5 25 19 124 22 150 1 11 4 34 7
50 5 28 15 93 22 140 1 11 6 45 11 75 4 30 8 77 9 105 0 52 -8 60 -50 47z"/>
<path d="M8061 5631 c-6 -10 -8 -20 -6 -23 3 -2 7 -24 10 -49 3 -24 8 -55 10
-69 2 -14 7 -47 11 -75 3 -27 7 -57 9 -65 7 -41 16 -99 20 -130 2 -19 6 -46 9
-60 3 -14 8 -45 10 -70 3 -25 7 -56 10 -70 7 -38 19 -122 21 -145 2 -17 10
-67 20 -125 2 -8 6 -42 10 -75 3 -32 8 -62 10 -65 2 -3 6 -32 9 -65 4 -33 9
-67 11 -75 2 -8 6 -35 9 -60 3 -25 8 -58 11 -74 3 -15 7 -47 9 -70 2 -22 6
-48 9 -56 5 -14 14 -79 23 -161 l3 -37 -47 15 c-206 65 -533 95 -767 69 -38
-4 -83 -9 -100 -11 -46 -5 -102 -15 -195 -36 -47 -11 -92 -21 -100 -23 -8 -2
-22 -6 -30 -9 -63 -22 -196 -61 -202 -59 -5 1 -8 -2 -8 -8 0 -5 -8 -10 -18
-10 -10 0 -22 -3 -26 -7 -3 -4 -12 -8 -19 -9 -7 -1 -47 -18 -89 -38 -42 -20
-80 -36 -83 -36 -12 0 -65 -41 -65 -50 0 -5 48 12 108 36 133 56 309 115 425
143 88 21 105 24 182 36 22 3 52 8 68 11 93 16 329 21 472 10 49 -4 92 -9 95
-11 3 -2 26 -6 50 -9 25 -3 56 -8 70 -12 14 -3 34 -7 45 -9 44 -9 111 -26 125
-32 8 -4 20 -8 25 -8 12 -2 32 -10 115 -46 35 -15 68 -25 72 -23 4 3 6 19 4
37 -2 18 -7 68 -11 112 -4 44 -9 89 -11 100 -3 11 -7 43 -9 70 -3 28 -7 66
-10 85 -2 19 -7 58 -10 85 -3 28 -8 68 -10 90 -3 22 -7 60 -10 85 -2 25 -6 65
-9 90 -4 25 -8 68 -11 95 -3 28 -8 61 -10 75 -3 14 -7 50 -10 80 -3 30 -7 73
-10 95 -4 22 -8 60 -10 85 -4 49 -14 131 -20 170 -2 14 -7 52 -10 85 -20 190
-25 227 -37 249 -15 28 -29 41 -65 60 -41 21 -60 20 -72 -3z"/>
<path d="M3483 5460 c-75 -37 -81 -49 -97 -175 -3 -22 -7 -49 -10 -60 -2 -11
-7 -45 -11 -75 -4 -30 -9 -64 -11 -74 -2 -11 -6 -46 -9 -79 -3 -33 -7 -63 -9
-66 -3 -3 -7 -35 -11 -71 -3 -35 -8 -67 -10 -70 -2 -3 -6 -32 -9 -65 -4 -33
-9 -69 -11 -80 -2 -11 -7 -40 -10 -65 -3 -25 -7 -56 -9 -70 -3 -14 -7 -47 -11
-75 -3 -27 -8 -57 -10 -65 -3 -8 -7 -40 -10 -70 -5 -54 -8 -77 -18 -135 -3
-16 -9 -55 -12 -85 -4 -30 -9 -64 -11 -75 -2 -11 -6 -42 -9 -70 -3 -27 -7 -61
-10 -75 -4 -23 -11 -72 -20 -140 -2 -14 -6 -38 -9 -55 -2 -16 -8 -55 -11 -85
-4 -30 -9 -64 -11 -75 -2 -11 -7 -42 -10 -70 -3 -27 -10 -69 -14 -93 -6 -36
-5 -44 10 -52 10 -6 20 -7 22 -2 10 24 464 188 601 216 12 3 76 18 142 35 110
27 234 53 310 65 60 10 181 27 225 32 25 3 59 7 75 9 174 21 620 21 742 1 15
-3 51 -8 78 -11 53 -6 131 -19 232 -39 13 -3 25 -1 28 4 3 4 -12 11 -33 16
-20 4 -39 8 -42 9 -3 0 -34 6 -70 14 -36 7 -76 15 -90 18 -14 3 -38 7 -55 8
-16 1 -30 3 -30 5 0 1 -18 3 -40 5 -22 2 -60 6 -85 9 -198 20 -411 24 -600 11
-187 -12 -215 -14 -215 -16 0 0 -11 -2 -25 -4 -96 -11 -285 -41 -375 -59 -16
-4 -52 -11 -78 -16 -27 -6 -53 -7 -59 -4 -7 4 -8 2 -4 -4 4 -6 -1 -11 -11 -11
-20 0 -68 -11 -158 -36 -33 -10 -64 -18 -70 -19 -5 -2 -44 -13 -85 -25 -41
-13 -79 -24 -85 -26 -5 -1 -17 -5 -25 -8 -26 -11 -105 -37 -111 -37 -7 0 -2
77 5 89 3 4 8 34 11 66 4 33 9 64 12 68 2 4 7 24 9 45 5 37 9 63 18 112 3 14
7 41 10 60 3 19 15 89 26 155 11 66 23 136 26 155 3 19 7 42 9 50 2 8 7 33 10
55 3 23 7 52 10 65 3 13 7 42 10 65 3 22 8 47 10 55 2 8 7 33 10 55 3 23 8 52
11 65 3 14 7 39 9 56 3 17 17 100 31 185 14 85 28 168 30 184 2 17 8 53 14 80
5 28 12 70 15 95 3 25 7 52 10 60 2 8 6 33 10 55 6 44 10 67 23 138 11 57 7
58 -75 17z"/>
<path d="M8451 5449 c6 -23 7 -44 4 -47 -2 -3 -1 -10 4 -16 5 -6 11 -33 14
-61 3 -27 10 -75 16 -105 7 -30 14 -75 17 -100 2 -25 7 -52 9 -60 8 -26 37
-199 50 -295 2 -16 16 -97 30 -180 14 -82 28 -162 30 -177 17 -101 22 -129 39
-228 8 -47 17 -101 21 -120 3 -19 7 -46 10 -60 2 -14 7 -43 10 -65 5 -40 10
-65 20 -115 3 -14 7 -41 10 -60 7 -53 15 -102 21 -128 3 -13 7 -43 10 -65 3
-23 9 -60 13 -82 9 -48 4 -70 -12 -57 -13 10 -226 81 -266 88 -13 3 -31 9 -40
13 -9 5 -19 9 -24 10 -14 1 -62 13 -77 18 -8 3 -24 7 -35 9 -11 1 -71 15 -134
29 -119 27 -246 51 -322 60 -24 3 -53 7 -64 9 -11 2 -49 7 -85 11 -36 4 -78 9
-95 11 -212 28 -667 18 -880 -19 -16 -3 -50 -9 -75 -12 -25 -4 -54 -9 -65 -12
-11 -2 -33 -6 -49 -8 -15 -2 -36 -7 -46 -10 -10 -3 -29 -8 -41 -10 -28 -6 -50
-25 -28 -25 8 0 29 4 48 10 19 5 50 12 70 15 20 3 47 7 60 10 13 2 49 7 80 10
31 4 67 8 80 10 132 22 607 21 747 -1 17 -3 46 -6 65 -8 93 -10 145 -17 159
-21 8 -2 35 -7 60 -10 25 -3 88 -15 140 -26 52 -11 106 -22 120 -25 14 -3 43
-10 65 -16 22 -5 51 -12 64 -15 14 -2 28 -6 33 -9 5 -3 20 -7 34 -10 99 -18
456 -143 591 -206 38 -19 52 -5 43 44 -4 24 -10 61 -14 83 -6 46 -24 174 -32
225 -3 19 -7 49 -8 65 -13 113 -19 152 -27 166 -4 9 -6 19 -3 21 4 4 -6 83
-20 168 -2 14 -7 50 -11 80 -4 30 -9 66 -11 80 -2 14 -6 39 -8 55 -13 92 -17
126 -26 180 -5 33 -12 80 -14 105 -3 25 -8 55 -10 68 -3 13 -8 51 -11 85 -4
34 -8 64 -10 67 -1 3 -6 30 -9 61 -4 31 -9 67 -11 80 -3 13 -7 43 -10 66 -3
23 -7 59 -10 80 -3 21 -8 53 -10 71 -36 253 -36 250 -68 282 -17 17 -36 30
-43 30 -6 0 -25 7 -40 15 -47 24 -53 20 -43 -26z"/>
<path d="M5936 4852 c2 -3 -1 -11 -7 -19 -6 -7 -9 -13 -6 -13 3 0 -8 -39 -24
-87 -16 -49 -29 -88 -29 -88 2 0 -11 -39 -20 -60 -4 -11 -27 -69 -51 -130 -50
-131 -131 -288 -206 -405 -31 -47 -58 -87 -62 -90 -8 -6 -13 -29 -13 -57 -1
-24 52 -133 64 -133 4 0 8 -8 8 -19 0 -10 7 -24 15 -31 8 -7 15 -16 15 -20 0
-4 21 -52 47 -106 26 -55 48 -103 49 -109 1 -5 12 -35 24 -65 21 -53 32 -91
33 -117 1 -18 13 -20 122 -19 l100 1 0 203 c1 189 0 202 -17 202 -31 0 -81 25
-111 56 -85 85 -73 225 25 293 24 17 48 35 54 40 15 12 13 756 -2 769 -6 5 -9
7 -8 4z"/>
<path d="M6058 4848 c-4 -7 -6 -736 -2 -755 2 -12 13 -25 25 -28 42 -13 96
-79 113 -134 11 -36 13 -58 6 -66 -5 -7 -7 -14 -4 -18 3 -3 -6 -28 -21 -55
-27 -50 -64 -79 -125 -98 l-35 -11 0 -199 0 -199 107 -1 c104 -1 107 -1 112
22 4 13 6 26 6 29 0 6 39 114 50 140 5 11 20 45 33 75 39 90 81 175 90 178 4
2 7 8 7 14 0 6 14 34 31 61 17 28 32 57 33 64 1 7 5 15 8 18 16 17 -24 98 -99
201 -9 11 -28 46 -84 149 -39 73 -124 271 -128 298 0 4 -8 21 -16 37 -8 16
-15 31 -15 32 1 2 -1 10 -4 18 -37 110 -66 206 -66 217 0 11 -16 19 -22 11z"/>
<path d="M10646 4798 c3 -5 10 -6 15 -3 13 9 11 12 -6 12 -8 0 -12 -4 -9 -9z"/>
<path d="M10527 4639 c7 -7 15 -10 18 -7 3 3 -2 9 -12 12 -14 6 -15 5 -6 -5z"/>
<path d="M4106 4158 c3 -5 10 -6 15 -3 13 9 11 12 -6 12 -8 0 -12 -4 -9 -9z"/>
<path d="M10370 4121 c0 -6 4 -13 10 -16 6 -3 7 1 4 9 -7 18 -14 21 -14 7z"/>
<path d="M3550 3719 c0 -5 5 -7 10 -4 6 3 10 8 10 11 0 2 -4 4 -10 4 -5 0 -10
-5 -10 -11z"/>
<path d="M3002 3284 c10 -10 20 -16 22 -13 3 3 -5 11 -17 18 -21 13 -21 12 -5
-5z"/>
<path d="M2840 3280 c-8 -5 -10 -10 -5 -10 6 0 17 5 25 10 8 5 11 10 5 10 -5
0 -17 -5 -25 -10z"/>
<path d="M2953 3275 c0 -8 4 -12 9 -9 5 3 6 10 3 15 -9 13 -12 11 -12 -6z"/>
<path d="M9110 3286 c0 -2 7 -7 16 -10 8 -3 12 -2 9 4 -6 10 -25 14 -25 6z"/>
<path d="M3076 3253 c-6 -14 -5 -15 5 -6 7 7 10 15 7 18 -3 3 -9 -2 -12 -12z"/>
<path d="M3225 3240 c-3 -6 1 -7 9 -4 18 7 21 14 7 14 -6 0 -13 -4 -16 -10z"/>
<path d="M5740 3237 c-38 -10 -51 -63 -26 -102 l16 -25 268 0 c300 0 312 3
312 63 0 42 -9 54 -44 63 -40 10 -488 11 -526 1z"/>
<path d="M5616 3069 c-17 -14 -21 -30 -22 -99 -3 -129 -35 -120 409 -120 305
0 377 3 392 14 17 12 20 28 21 99 3 131 35 121 -409 122 -330 0 -373 -2 -391
-16z"/>
<path d="M2976 3038 c3 -5 10 -6 15 -3 13 9 11 12 -6 12 -8 0 -12 -4 -9 -9z"/>
<path d="M3246 2922 c-3 -5 1 -9 9 -9 8 0 12 4 9 9 -3 4 -7 8 -9 8 -2 0 -6 -4
-9 -8z"/>
<path d="M4946 2540 c-1 -3 -2 -66 -1 -140 l0 -135 88 -3 c73 -2 87 0 87 13 0
12 -14 15 -71 15 l-71 0 3 48 3 47 53 5 c70 7 68 24 -2 28 l-54 3 1 44 1 45
68 0 c67 0 77 4 61 25 -7 10 -162 15 -166 5z"/>
<path d="M5208 2531 c-57 -45 -41 -100 39 -138 44 -21 59 -34 61 -52 7 -45
-59 -68 -104 -36 -22 15 -34 11 -34 -12 0 -16 43 -34 83 -35 35 -1 75 20 82
43 22 68 8 98 -54 119 -51 17 -75 42 -66 69 3 12 12 21 18 22 7 0 21 2 31 4
10 2 29 -3 41 -11 20 -13 23 -13 29 1 8 22 8 22 -11 30 -44 18 -89 16 -115 -4z"/>
<path d="M5385 2541 c-3 -2 -5 -10 -5 -18 0 -9 15 -13 48 -13 l47 0 -2 -125
c-2 -118 -1 -125 17 -125 11 0 20 5 21 10 0 6 1 62 1 125 l1 115 43 0 c44 0
64 13 42 27 -14 8 -205 12 -213 4z"/>
<path d="M5662 2536 c-4 -6 -7 -71 -7 -143 l0 -133 73 0 c86 0 121 15 152 64
44 72 19 170 -50 201 -46 21 -157 28 -168 11z m161 -46 c30 -24 51 -84 38
-109 -5 -9 -10 -20 -11 -26 -10 -42 -49 -65 -112 -65 l-44 0 -1 110 -1 110 52
0 c39 0 61 -6 79 -20z"/>
<path d="M6213 2540 c-30 -12 -59 -58 -46 -71 10 -10 15 -6 52 36 16 19 58 12
76 -12 19 -26 -3 -69 -77 -147 -38 -39 -68 -74 -68 -79 0 -4 43 -6 95 -5 109
3 130 21 30 26 l-66 3 64 69 c66 71 66 71 58 146 -1 13 -61 44 -83 43 -7 0
-23 -4 -35 -9z"/>
<path d="M6442 2537 c-35 -20 -54 -65 -54 -133 0 -74 21 -121 64 -138 80 -34
141 33 137 150 -2 59 -6 70 -34 100 -35 37 -72 44 -113 21z m93 -47 c22 -35
26 -119 6 -161 -13 -27 -23 -35 -48 -37 -42 -4 -67 32 -69 101 -3 59 9 96 38
118 23 18 53 9 73 -21z"/>
<path d="M6682 2534 c-44 -31 -66 -118 -49 -189 3 -11 6 -23 6 -26 2 -13 37
-45 61 -55 38 -17 90 3 113 43 22 39 26 123 7 174 -22 61 -90 87 -138 53z m88
-34 c11 -11 21 -28 21 -37 1 -10 3 -34 4 -53 4 -39 -12 -101 -29 -112 -6 -4
-23 -8 -38 -8 -48 0 -66 50 -60 161 2 31 36 69 62 69 11 0 29 -9 40 -20z"/>
<path d="M6937 2543 c-9 -2 -28 -21 -42 -40 -21 -32 -24 -46 -22 -110 3 -67 5
-76 34 -105 52 -52 121 -37 152 33 19 42 20 141 2 163 -6 7 -8 16 -5 19 4 3
-9 15 -27 26 -33 20 -55 24 -92 14z m74 -42 c19 -15 23 -29 25 -82 2 -65 -8
-108 -29 -121 -19 -12 -57 -9 -72 6 -36 36 -36 156 0 196 23 25 46 25 76 1z"/>
<path d="M5964 2445 c-9 -23 15 -48 32 -34 19 16 17 26 -6 39 -16 9 -22 8 -26
-5z"/>
<path d="M5960 2291 c-8 -16 -6 -21 11 -26 28 -9 46 9 29 30 -17 20 -27 19
-40 -4z"/>
<path d="M1710 1936 c0 -2 8 -10 18 -17 15 -13 16 -12 3 4 -13 16 -21 21 -21
13z"/>
<path d="M1596 1438 c3 -5 10 -6 15 -3 13 9 11 12 -6 12 -8 0 -12 -4 -9 -9z"/>
<path d="M1587 1399 c7 -7 15 -10 18 -7 3 3 -2 9 -12 12 -14 6 -15 5 -6 -5z"/>
</g>
</svg>
